<?xml version="1.0" encoding="iso-8859-1"?>
<!-- Generator: Adobe Illustrator 19.0.0, SVG Export Plug-In . SVG Version: 6.00 Build 0)  -->
<svg version="1.1" id="Capa_1" xmlns="http://www.w3.org/2000/svg" xmlns:xlink="http://www.w3.org/1999/xlink" x="0px" y="0px"
	 viewBox="0 0 512 512" style="enable-background:new 0 0 512 512;" xml:space="preserve">
<g>
	<circle style="fill:#2980BA;" cx="256" cy="256" r="256"/>
	<path style="fill:#2C3E50;" d="M238.345,88.276h35.31c4.875,0,8.828,3.952,8.828,8.828v35.31h-52.966v-35.31
		C229.517,92.228,233.469,88.276,238.345,88.276z"/>
	<path style="fill:#BDC3C7;" d="M273.655,0.53v87.746h-35.31V0.53C244.171,0.177,250.086,0,256,0S267.829,0.177,273.655,0.53z"/>
	<path style="fill:#3D324C;" d="M16.119,123.586h479.762c8.902,0,16.119,7.217,16.119,16.119v232.589
		c0,8.902-7.217,16.119-16.119,16.119H16.119C7.217,388.414,0,381.197,0,372.295V139.705C0,130.803,7.217,123.586,16.119,123.586z"
		/>
	<g>
		<path style="fill:#7D6599;" d="M44.138,167.724h17.655c4.875,0,8.828,3.952,8.828,8.828v17.655c0,4.875-3.952,8.828-8.828,8.828
			H44.138c-4.875,0-8.828-3.952-8.828-8.828v-17.655C35.31,171.676,39.263,167.724,44.138,167.724z"/>
		<path style="fill:#7D6599;" d="M123.586,167.724h17.655c4.875,0,8.828,3.952,8.828,8.828v17.655c0,4.875-3.952,8.828-8.828,8.828
			h-17.655c-4.875,0-8.828-3.952-8.828-8.828v-17.655C114.759,171.676,118.711,167.724,123.586,167.724z"/>
		<path style="fill:#7D6599;" d="M203.034,167.724h17.655c4.875,0,8.828,3.952,8.828,8.828v17.655c0,4.875-3.952,8.828-8.828,8.828
			h-17.655c-4.875,0-8.828-3.952-8.828-8.828v-17.655C194.207,171.676,198.159,167.724,203.034,167.724z"/>
		<path style="fill:#7D6599;" d="M282.483,167.724h17.655c4.875,0,8.828,3.952,8.828,8.828v17.655c0,4.875-3.952,8.828-8.828,8.828
			h-17.655c-4.875,0-8.828-3.952-8.828-8.828v-17.655C273.655,171.676,277.607,167.724,282.483,167.724z"/>
		<path style="fill:#7D6599;" d="M361.931,167.724h17.655c4.875,0,8.828,3.952,8.828,8.828v17.655c0,4.875-3.952,8.828-8.828,8.828
			h-17.655c-4.875,0-8.828-3.952-8.828-8.828v-17.655C353.103,171.676,357.056,167.724,361.931,167.724z"/>
		<path style="fill:#7D6599;" d="M441.379,167.724h17.655c4.875,0,8.828,3.952,8.828,8.828v17.655c0,4.875-3.952,8.828-8.828,8.828
			h-17.655c-4.875,0-8.828-3.952-8.828-8.828v-17.655C432.552,171.676,436.504,167.724,441.379,167.724z"/>
		<path style="fill:#7D6599;" d="M44.138,238.345h17.655c4.875,0,8.828,3.952,8.828,8.828v17.655c0,4.875-3.952,8.828-8.828,8.828
			H44.138c-4.875,0-8.828-3.952-8.828-8.828v-17.655C35.31,242.297,39.263,238.345,44.138,238.345z"/>
		<path style="fill:#7D6599;" d="M123.586,238.345h17.655c4.875,0,8.828,3.952,8.828,8.828v17.655c0,4.875-3.952,8.828-8.828,8.828
			h-17.655c-4.875,0-8.828-3.952-8.828-8.828v-17.655C114.759,242.297,118.711,238.345,123.586,238.345z"/>
		<path style="fill:#7D6599;" d="M203.034,238.345h17.655c4.875,0,8.828,3.952,8.828,8.828v17.655c0,4.875-3.952,8.828-8.828,8.828
			h-17.655c-4.875,0-8.828-3.952-8.828-8.828v-17.655C194.207,242.297,198.159,238.345,203.034,238.345z"/>
		<path style="fill:#7D6599;" d="M282.483,238.345h17.655c4.875,0,8.828,3.952,8.828,8.828v17.655c0,4.875-3.952,8.828-8.828,8.828
			h-17.655c-4.875,0-8.828-3.952-8.828-8.828v-17.655C273.655,242.297,277.607,238.345,282.483,238.345z"/>
		<path style="fill:#7D6599;" d="M361.931,238.345h17.655c4.875,0,8.828,3.952,8.828,8.828v17.655c0,4.875-3.952,8.828-8.828,8.828
			h-17.655c-4.875,0-8.828-3.952-8.828-8.828v-17.655C353.103,242.297,357.056,238.345,361.931,238.345z"/>
		<path style="fill:#7D6599;" d="M441.379,238.345h17.655c4.875,0,8.828,3.952,8.828,8.828v17.655c0,4.875-3.952,8.828-8.828,8.828
			h-17.655c-4.875,0-8.828-3.952-8.828-8.828v-17.655C432.552,242.297,436.504,238.345,441.379,238.345z"/>
		<path style="fill:#7D6599;" d="M44.138,308.966h17.655c4.875,0,8.828,3.952,8.828,8.828v17.655c0,4.875-3.952,8.828-8.828,8.828
			H44.138c-4.875,0-8.828-3.952-8.828-8.828v-17.655C35.31,312.918,39.263,308.966,44.138,308.966z"/>
		<path style="fill:#7D6599;" d="M123.586,308.966h256c4.875,0,8.828,3.952,8.828,8.828v17.655c0,4.875-3.952,8.828-8.828,8.828
			h-256c-4.875,0-8.828-3.952-8.828-8.828v-17.655C114.759,312.918,118.711,308.966,123.586,308.966z"/>
		<path style="fill:#7D6599;" d="M441.379,308.966h17.655c4.875,0,8.828,3.952,8.828,8.828v17.655c0,4.875-3.952,8.828-8.828,8.828
			h-17.655c-4.875,0-8.828-3.952-8.828-8.828v-17.655C432.552,312.918,436.504,308.966,441.379,308.966z"/>
	</g>
</g>
<g>
</g>
<g>
</g>
<g>
</g>
<g>
</g>
<g>
</g>
<g>
</g>
<g>
</g>
<g>
</g>
<g>
</g>
<g>
</g>
<g>
</g>
<g>
</g>
<g>
</g>
<g>
</g>
<g>
</g>
</svg>
